# xmcd
#
# Track frame offsets: 
#        150
#        41541
#        73388
#        84937
#        121336
#        166739
#        179196
#        204378
#        215852
#        234162
#        270267
#        287244
#
# Disc length: 4347 seconds
#
# Revision: 0
# Processed by: cddbd v1.5.1PL0 Copyright (c) Steve Scherf et al.
# Submitted via: ExactAudioCopy v0.90b4
#
DISCID=af10f90c
DTITLE=Jimi Hendrix - Electric Church
DYEAR=1900
DGENRE=
TTITLE0=Electric Church
TTITLE1=Message to Love
TTITLE2=Can you please crawl out your window...
TTITLE3=Freedom Jam
TTITLE4=Captain Coconut
TTITLE5=Midnight Lightnin'
TTITLE6=Rainy Day Practice Session
TTITLE7=Message to Love
TTITLE8=Villanova Junction
TTITLE9=Hear my Train a Comin'
TTITLE10=Belly Button Window
TTITLE11=Power of Soul Session
EXTD=
EXTT0=
EXTT1=
EXTT2=
EXTT3=
EXTT4=
EXTT5=
EXTT6=
EXTT7=
EXTT8=
EXTT9=
EXTT10=
EXTT11=
PLAYORDER=
